<svg clip-rule="evenodd" fill-rule="evenodd" height="16" stroke-linejoin="round" stroke-miterlimit="1.5" width="16" xmlns="http://www.w3.org/2000/svg"><path d="m8.103.001.103.002.103.003.102.004.102.006.102.007.101.009.101.009.101.011.1.012.1.014.1.014.099.016.098.017.099.018.097.02.098.02.097.022.096.023.096.024.096.025.095.027.095.027.094.029.094.03.093.031.092.032.092.033.092.034.091.035.091.037.09.037.089.039.089.039.088.041.088.041.087.043.087.044.086.044.085.046.085.047.084.048.083.048.083.05.082.05.082.052.08.053.081.053.079.054.079.056.078.056.077.057.077.058.076.059.075.06.075.061.073.061.073.063.072.063.072.064.071.065.069.066.069.067.069.067.067.069.067.069.066.069.065.071.064.072.063.072.063.073.061.073.061.075.06.075.059.076.058.077.057.077.056.078.056.079.054.079.053.081.053.08.052.082.05.082.05.083.048.083.048.084.047.085.046.085.044.086.044.087.043.087.041.088.041.088.039.089.039.089.037.09.037.091.035.091.034.092.033.092.032.092.031.093.03.094.029.094.027.095.027.095.025.096.024.096.023.096.022.097.02.098.02.097.018.099.017.098.016.099.014.1.014.1.012.1.011.101.009.101.009.101.007.102.006.102.004.102.003.103.002.103.001.103-.001.103-.002.103-.003.103-.004.102-.006.102-.007.102-.009.101-.009.101-.011.101-.012.1-.014.1-.014.1-.016.099-.017.098-.018.099-.02.097-.02.098-.022.097-.023.096-.024.096-.025.096-.027.095-.027.095-.029.094-.03.094-.031.093-.032.092-.033.092-.034.092-.035.091-.037.091-.037.09-.039.089-.039.089-.041.088-.041.088-.043.087-.044.087-.044.086-.046.085-.047.085-.048.084-.048.083-.05.083-.05.082-.052.082-.053.08-.053.081-.054.079-.056.079-.056.078-.057.077-.058.077-.059.076-.06.075-.061.075-.061.073-.063.073-.063.072-.064.072-.065.071-.066.069-.067.069-.067.069-.069.067-.069.067-.069.066-.071.065-.072.064-.072.063-.073.063-.073.061-.075.061-.075.06-.076.059-.077.058-.077.057-.078.056-.079.056-.079.054-.081.053-.08.053-.082.052-.082.05-.083.05-.083.048-.084.048-.085.047-.085.046-.086.044-.087.044-.087.043-.088.041-.088.041-.089.039-.089.039-.09.037-.091.037-.091.035-.092.034-.092.033-.092.032-.093.031-.094.03-.094.029-.095.027-.095.027-.096.025-.096.024-.096.023-.097.022-.098.02-.097.02-.099.018-.098.017-.099.016-.1.014-.1.014-.1.012-.101.011-.101.009-.101.009-.102.007-.102.006-.102.004-.103.003-.103.002-.103.001-.103-.001-.103-.002-.103-.003-.102-.004-.102-.006-.102-.007-.101-.009-.101-.009-.101-.011-.1-.012-.1-.014-.1-.014-.099-.016-.098-.017-.099-.018-.097-.02-.098-.02-.097-.022-.096-.023-.096-.024-.096-.025-.095-.027-.095-.027-.094-.029-.094-.03-.093-.031-.092-.032-.092-.033-.092-.034-.091-.035-.091-.037-.09-.037-.089-.039-.089-.039-.088-.041-.088-.041-.087-.043-.087-.044-.086-.044-.085-.046-.085-.047-.084-.048-.083-.048-.083-.05-.082-.05-.082-.052-.08-.053-.081-.053-.079-.054-.079-.056-.078-.056-.077-.057-.077-.058-.076-.059-.075-.06-.075-.061-.073-.061-.073-.063-.072-.063-.072-.064-.071-.065-.069-.066-.069-.067-.069-.067-.067-.069-.067-.069-.066-.069-.065-.071-.064-.072-.063-.072-.063-.073-.061-.073-.061-.075-.06-.075-.059-.076-.058-.077-.057-.077-.056-.078-.056-.079-.054-.079-.053-.081-.053-.08-.052-.082-.05-.082-.05-.083-.048-.083-.048-.084-.047-.085-.046-.085-.044-.086-.044-.087-.043-.087-.041-.088-.041-.088-.039-.089-.039-.089-.037-.09-.037-.091-.035-.091-.034-.092-.033-.092-.032-.092-.031-.093-.03-.094-.029-.094-.027-.095-.027-.095-.025-.096-.024-.096-.023-.096-.022-.097-.02-.098-.02-.097-.018-.099-.017-.098-.016-.099-.014-.1-.014-.1-.012-.1-.011-.101-.009-.101-.009-.101-.007-.102-.006-.102-.004-.102-.003-.103-.002-.103-.001-.103.001-.103.002-.103.003-.103.004-.102.006-.102.007-.102.009-.101.009-.101.011-.101.012-.1.014-.1.014-.1.016-.099.017-.098.018-.099.02-.097.02-.098.022-.097.023-.096.024-.096.025-.096.027-.095.027-.095.029-.094.03-.094.031-.093.032-.092.033-.092.034-.092.035-.091.037-.091.037-.09.039-.089.039-.089.041-.088.041-.088.043-.087.044-.087.044-.086.046-.085.047-.085.048-.084.048-.083.05-.083.05-.082.052-.082.053-.08.053-.081.054-.079.056-.079.056-.078.057-.077.058-.077.059-.076.06-.075.061-.075.061-.073.063-.073.063-.072.064-.072.065-.071.066-.069.067-.069.067-.069.069-.067.069-.067.069-.066.071-.065.072-.064.072-.063.073-.063.073-.061.075-.061.075-.06.076-.059.077-.058.077-.057.078-.056.079-.056.079-.054.081-.053.08-.053.082-.052.082-.05.083-.05.083-.048.084-.048.085-.047.085-.046.086-.044.087-.044.087-.043.088-.041.088-.041.089-.039.089-.039.09-.037.091-.037.091-.035.092-.034.092-.033.092-.032.093-.031.094-.03.094-.029.095-.027.095-.027.096-.025.096-.024.096-.023.097-.022.098-.02.097-.02.099-.018.098-.017.099-.016.1-.014.1-.014.1-.012.101-.011.101-.009.101-.009.102-.007.102-.006.102-.004.103-.003.103-.002.103-.001zm-.194 1-.09.001-.09.003-.09.004-.089.005-.089.006-.089.008-.088.008-.088.01-.088.01-.087.012-.087.013-.087.014-.086.014-.086.016-.086.017-.085.018-.085.019-.084.02-.084.021-.083.023-.084.023-.082.024-.083.025-.081.026-.082.027-.081.028-.08.029-.08.03-.08.03-.079.032-.079.033-.078.034-.078.034-.077.036-.077.036-.076.037-.076.039-.075.039-.074.04-.075.041-.073.041-.073.043-.073.043-.071.045-.072.045-.07.046-.071.047-.069.047-.069.049-.069.049-.067.05-.067.051-.067.051-.066.053-.065.053-.064.054-.064.055-.064.055-.062.056-.062.057-.061.058-.061.058-.06.059-.059.06-.058.061-.058.061-.057.062-.056.062-.055.064-.055.064-.054.064-.053.065-.053.066-.051.067-.051.067-.05.067-.049.069-.049.069-.047.069-.047.071-.046.07-.045.072-.045.071-.043.073-.043.073-.041.073-.041.075-.04.074-.039.075-.039.076-.037.076-.036.077-.036.077-.034.078-.034.078-.033.079-.032.079-.03.08-.03.08-.029.08-.028.081-.027.082-.026.081-.025.083-.024.082-.023.084-.023.083-.021.084-.02.084-.019.085-.018.085-.017.086-.016.086-.014.086-.014.087-.013.087-.012.087-.01.088-.01.088-.008.088-.008.089-.006.089-.005.089-.004.09-.003.09-.001.09-.001.091.001.091.001.09.003.09.004.09.005.089.006.089.008.089.008.088.01.088.01.088.012.087.013.087.014.087.014.086.016.086.017.086.018.085.019.085.02.084.021.084.023.083.023.084.024.082.025.083.026.081.027.082.028.081.029.08.03.08.03.08.032.079.033.079.034.078.034.078.036.077.036.077.037.076.039.076.039.075.04.074.041.075.041.073.043.073.043.073.045.071.045.072.046.07.047.071.047.069.049.069.049.069.05.067.051.067.051.067.053.066.053.065.054.064.055.064.055.064.056.062.057.062.058.061.058.061.059.06.06.059.061.058.061.058.062.057.062.056.064.055.064.055.064.054.065.053.066.053.067.051.067.051.067.05.069.049.069.049.069.047.071.047.07.046.072.045.071.045.073.043.073.043.073.041.075.041.074.04.075.039.076.039.076.037.077.036.077.036.078.034.078.034.079.033.079.032.08.03.08.03.08.029.081.028.082.027.081.026.083.025.082.024.084.023.083.023.084.021.084.02.085.019.085.018.086.017.086.016.086.014.087.014.087.013.087.012.088.01.088.01.088.008.089.008.089.006.089.005.09.004.09.003.09.001.091.001.091-.001.09-.001.09-.003.09-.004.089-.005.089-.006.089-.008.088-.008.088-.01.088-.01.087-.012.087-.013.087-.014.086-.014.086-.016.086-.017.085-.018.085-.019.084-.02.084-.021.083-.023.084-.023.082-.024.083-.025.081-.026.082-.027.081-.028.08-.029.08-.03.08-.03.079-.032.079-.033.078-.034.078-.034.077-.036.077-.036.076-.037.076-.039.075-.039.074-.04.075-.041.073-.041.073-.043.073-.043.071-.045.072-.045.07-.046.071-.047.069-.047.069-.049.069-.049.067-.05.067-.051.067-.051.066-.053.065-.053.064-.054.064-.055.064-.055.062-.056.062-.057.061-.058.061-.058.06-.059.059-.06.058-.061.058-.061.057-.062.056-.062.055-.064.055-.064.054-.064.053-.065.053-.066.051-.067.051-.067.05-.067.049-.069.049-.069.047-.069.047-.071.046-.07.045-.072.045-.071.043-.073.043-.073.041-.073.041-.075.04-.074.039-.075.039-.076.037-.076.036-.077.036-.077.034-.078.034-.078.033-.079.032-.079.03-.08.03-.08.029-.08.028-.081.027-.082.026-.081.025-.083.024-.082.023-.084.023-.083.021-.084.02-.084.019-.085.018-.085.017-.086.016-.086.014-.086.014-.087.013-.087.012-.087.01-.088.01-.088.008-.088.008-.089.006-.089.005-.089.004-.09.003-.09.001-.09.001-.091-.001-.091-.001-.09-.003-.09-.004-.09-.005-.089-.006-.089-.008-.089-.008-.088-.01-.088-.01-.088-.012-.087-.013-.087-.014-.087-.014-.086-.016-.086-.017-.086-.018-.085-.019-.085-.02-.084-.021-.084-.023-.083-.023-.084-.024-.082-.025-.083-.026-.081-.027-.082-.028-.081-.029-.08-.03-.08-.03-.08-.032-.079-.033-.079-.034-.078-.034-.078-.036-.077-.036-.077-.037-.076-.039-.076-.039-.075-.04-.074-.041-.075-.041-.073-.043-.073-.043-.073-.045-.071-.045-.072-.046-.07-.047-.071-.047-.069-.049-.069-.049-.069-.05-.067-.051-.067-.051-.067-.053-.066-.053-.065-.054-.064-.055-.064-.055-.064-.056-.062-.057-.062-.058-.061-.058-.061-.059-.06-.06-.059-.061-.058-.061-.058-.062-.057-.062-.056-.064-.055-.064-.055-.064-.054-.065-.053-.066-.053-.067-.051-.067-.051-.067-.05-.069-.049-.069-.049-.069-.047-.071-.047-.07-.046-.072-.045-.071-.045-.073-.043-.073-.043-.073-.041-.075-.041-.074-.04-.075-.039-.076-.039-.076-.037-.077-.036-.077-.036-.078-.034-.078-.034-.079-.033-.079-.032-.08-.03-.08-.03-.08-.029-.081-.028-.082-.027-.081-.026-.083-.025-.082-.024-.084-.023-.083-.023-.084-.021-.084-.02-.085-.019-.085-.018-.086-.017-.086-.016-.086-.014-.087-.014-.087-.013-.087-.012-.088-.01-.088-.01-.088-.008-.089-.008-.089-.006-.089-.005-.09-.004-.09-.003-.09-.001-.091-.001z"/><path d="m.25 8h15.5" fill="none" stroke="#000"/><path d="m8 .5v15" fill="none" stroke="#000"/><path d="m8.058.001.058.002.058.003.057.004.058.006.057.007.057.009.057.009.056.011.057.012.056.014.056.014.056.016.055.017.055.018.055.02.055.02.055.022.054.023.054.024.054.025.053.027.054.027.053.029.052.03.053.031.052.032.052.033.051.034.051.035.051.037.051.037.05.039.05.039.05.041.049.041.049.043.049.044.048.044.048.046.048.047.047.048.047.048.047.05.046.05.046.052.045.053.045.053.045.054.044.056.044.056.044.057.043.058.043.059.042.06.042.061.041.061.041.063.041.063.04.064.04.065.039.066.039.067.038.067.038.069.038.069.037.069.036.071.036.072.036.072.035.073.035.073.034.075.034.075.066.153.063.155.062.158.06.161.057.164.055.166.054.169.05.171.049.174.046.176.044.178.042.181.039.183.036.184.035.187.031.189.029.191.027.192.024.195.021.196.018.197.016.2.013.201.01.202.007.204.005.205.001.206-.001.206-.005.205-.007.204-.01.202-.013.201-.016.2-.018.197-.021.196-.024.195-.027.192-.029.191-.031.189-.035.187-.036.184-.039.183-.042.181-.044.178-.046.176-.049.174-.05.171-.054.169-.055.166-.057.164-.06.161-.062.158-.063.155-.066.153-.034.075-.034.075-.035.073-.035.073-.036.072-.036.072-.036.071-.037.069-.038.069-.038.069-.038.067-.039.067-.039.066-.04.065-.04.064-.041.063-.041.063-.041.061-.042.061-.042.06-.043.059-.043.058-.044.057-.044.056-.044.056-.045.054-.045.053-.045.053-.046.052-.046.05-.047.05-.047.048-.047.048-.048.047-.048.046-.048.044-.049.044-.049.043-.049.041-.05.041-.05.039-.05.039-.051.037-.051.037-.051.035-.051.034-.052.033-.052.032-.053.031-.052.03-.053.029-.054.027-.053.027-.054.025-.054.024-.054.023-.055.022-.055.02-.055.02-.055.018-.055.017-.056.016-.056.014-.056.014-.057.012-.056.011-.057.009-.057.009-.057.007-.058.006-.057.004-.058.003-.058.002-.058.001-.058-.001-.058-.002-.058-.003-.057-.004-.058-.006-.057-.007-.057-.009-.057-.009-.056-.011-.057-.012-.056-.014-.056-.014-.056-.016-.055-.017-.055-.018-.055-.02-.055-.02-.055-.022-.054-.023-.054-.024-.054-.025-.053-.027-.054-.027-.053-.029-.052-.03-.053-.031-.052-.032-.052-.033-.051-.034-.051-.035-.051-.037-.051-.037-.05-.039-.05-.039-.05-.041-.049-.041-.049-.043-.049-.044-.048-.044-.048-.046-.048-.047-.047-.048-.047-.048-.047-.05-.046-.05-.046-.052-.045-.053-.045-.053-.045-.054-.044-.056-.044-.056-.044-.057-.043-.058-.043-.059-.042-.06-.042-.061-.041-.061-.041-.063-.041-.063-.04-.064-.04-.065-.039-.066-.039-.067-.038-.067-.038-.069-.038-.069-.037-.069-.036-.071-.036-.072-.036-.072-.035-.073-.035-.073-.034-.075-.034-.075-.066-.153-.063-.155-.062-.158-.06-.161-.057-.164-.055-.166-.054-.169-.05-.171-.049-.174-.046-.176-.044-.178-.042-.181-.039-.183-.036-.184-.035-.187-.031-.189-.029-.191-.027-.192-.024-.195-.021-.196-.018-.197-.016-.2-.013-.201-.01-.202-.007-.204-.005-.205-.001-.206.001-.206.005-.205.007-.204.01-.202.013-.201.016-.2.018-.197.021-.196.024-.195.027-.192.029-.191.031-.189.035-.187.036-.184.039-.183.042-.181.044-.178.046-.176.049-.174.05-.171.054-.169.055-.166.057-.164.06-.161.062-.158.063-.155.066-.153.034-.075.034-.075.035-.073.035-.073.036-.072.036-.072.036-.071.037-.069.038-.069.038-.069.038-.067.039-.067.039-.066.04-.065.04-.064.041-.063.041-.063.041-.061.042-.061.042-.06.043-.059.043-.058.044-.057.044-.056.044-.056.045-.054.045-.053.045-.053.046-.052.046-.05.047-.05.047-.048.047-.048.048-.047.048-.046.048-.044.049-.044.049-.043.049-.041.05-.041.05-.039.05-.039.051-.037.051-.037.051-.035.051-.034.052-.033.052-.032.053-.031.052-.03.053-.029.054-.027.053-.027.054-.025.054-.024.054-.023.055-.022.055-.02.055-.02.055-.018.055-.017.056-.016.056-.014.056-.014.057-.012.056-.011.057-.009.057-.009.057-.007.058-.006.057-.004.058-.003.058-.002.058-.001zm-.094.999-.035.002-.035.002-.036.002-.035.004-.035.004-.035.006-.035.005-.035.007-.035.008-.035.008-.036.009-.035.01-.035.011-.036.012-.035.012-.036.014-.036.014-.036.015-.036.016-.036.017-.036.018-.037.019-.036.02-.037.021-.037.021-.037.023-.037.024-.037.024-.037.026-.037.027-.038.027-.037.029-.037.029-.038.031-.037.032-.038.032-.037.034-.038.035-.037.035-.038.037-.037.038-.037.038-.038.04-.037.041-.037.041-.037.043-.037.044-.036.044-.037.046-.036.047-.036.047-.036.049-.036.049-.036.051-.035.051-.036.052-.035.053-.034.055-.035.055-.034.055-.034.057-.033.058-.034.059-.033.059-.033.06-.032.061-.032.062-.032.063-.031.064-.031.064-.031.066-.03.066-.029.064-.06.139-.057.139-.055.142-.054.145-.052.148-.05.15-.048.153-.046.156-.045.159-.042.161-.04.163-.038.166-.036.167-.034.17-.032.173-.029.174-.027.176-.024.178-.022.18-.02.182-.017.183-.014.185-.012.187-.01.188-.007.189-.004.191-.001.192.001.192.004.191.007.189.01.188.012.187.014.185.017.183.02.182.022.18.024.178.027.176.029.174.032.173.034.17.036.167.038.166.04.163.042.161.045.159.046.156.048.153.05.15.052.148.054.145.055.142.057.139.06.139.029.064.03.066.031.066.031.064.031.064.032.063.032.062.032.061.033.06.033.059.034.059.033.058.034.057.034.055.035.055.034.055.035.053.036.052.035.051.036.051.036.049.036.049.036.047.036.047.037.046.036.044.037.044.037.043.037.041.037.041.038.04.037.038.037.038.038.037.037.035.038.035.037.034.038.032.037.032.038.031.037.029.037.029.038.027.037.027.037.026.037.024.037.024.037.023.037.021.037.021.036.02.037.019.036.018.036.017.036.016.036.015.036.014.036.014.035.012.036.012.035.011.035.01.036.009.035.008.035.008.035.007.035.005.035.006.035.004.035.004.036.002.035.002.035.002h.036.036l.035-.002.035-.002.036-.002.035-.004.035-.004.035-.006.035-.005.035-.007.035-.008.035-.008.036-.009.035-.01.035-.011.036-.012.035-.012.036-.014.036-.014.036-.015.036-.016.036-.017.036-.018.037-.019.036-.02.037-.021.037-.021.037-.023.037-.024.037-.024.037-.026.037-.027.038-.027.037-.029.037-.029.038-.031.037-.032.038-.032.037-.034.038-.035.037-.035.038-.037.037-.038.037-.038.038-.04.037-.041.037-.041.037-.043.037-.044.036-.044.037-.046.036-.047.036-.047.036-.049.036-.049.036-.051.035-.051.036-.052.035-.053.034-.055.035-.055.034-.055.034-.057.033-.058.034-.059.033-.059.033-.06.032-.061.032-.062.032-.063.031-.064.031-.064.031-.066.03-.066.029-.064.06-.139.057-.139.055-.142.054-.145.052-.148.05-.15.048-.153.046-.156.045-.159.042-.161.04-.163.038-.166.036-.167.034-.17.032-.173.029-.174.027-.176.024-.178.022-.18.02-.182.017-.183.014-.185.012-.187.01-.188.007-.189.004-.191.001-.192-.001-.192-.004-.191-.007-.189-.01-.188-.012-.187-.014-.185-.017-.183-.02-.182-.022-.18-.024-.178-.027-.176-.029-.174-.032-.173-.034-.17-.036-.167-.038-.166-.04-.163-.042-.161-.045-.159-.046-.156-.048-.153-.05-.15-.052-.148-.054-.145-.055-.142-.057-.139-.06-.139-.029-.064-.03-.066-.031-.066-.031-.064-.031-.064-.032-.063-.032-.062-.032-.061-.033-.06-.033-.059-.034-.059-.033-.058-.034-.057-.034-.055-.035-.055-.034-.055-.035-.053-.036-.052-.035-.051-.036-.051-.036-.049-.036-.049-.036-.047-.036-.047-.037-.046-.036-.044-.037-.044-.037-.043-.037-.041-.037-.041-.038-.04-.037-.038-.037-.038-.038-.037-.037-.035-.038-.035-.037-.034-.038-.032-.037-.032-.038-.031-.037-.029-.037-.029-.038-.027-.037-.027-.037-.026-.037-.024-.037-.024-.037-.023-.037-.021-.037-.021-.036-.02-.037-.019-.036-.018-.036-.017-.036-.016-.036-.015-.036-.014-.036-.014-.035-.012-.036-.012-.035-.011-.035-.01-.036-.009-.035-.008-.035-.008-.035-.007-.035-.005-.035-.006-.035-.004-.035-.004-.036-.002-.035-.002-.035-.002h-.036z"/><g fill="none" stroke="#000" stroke-width=".98"><path d="m1.5 4h13"/><path d="m1.5 12h13"/></g></svg>