<svg clip-rule="evenodd" fill-rule="evenodd" height="64" stroke-linejoin="round" stroke-miterlimit="1.5" width="64" xmlns="http://www.w3.org/2000/svg" xmlns:xlink="http://www.w3.org/1999/xlink"><clipPath id="a"><path clip-rule="evenodd" d="m0 0h64v64h-64z"/></clipPath><path d="m0 0h64v64h-64z" fill="none"/><g clip-path="url(#a)"><path d="m60.099 7.001.099.004.099.006.098.009.098.011.098.013.097.016.096.018.096.02.095.023.095.025.093.027.093.029.093.032.091.034.091.036.089.039.089.041.088.042.087.045.085.047.085.049.083.052.082.053.081.055.08.058.078.059.077.062.076.063.074.066.072.067.071.07.07.071.067.072.066.074.063.076.062.077.059.078.058.08.055.081.053.082.052.083.049.085.047.085.045.087.042.088.041.089.039.089.036.091.034.091.032.093.029.093.027.093.025.095.023.095.02.096.018.096.016.097.013.098.011.098.009.098.006.099.004.099.001.099v42l-.001.099-.004.099-.006.099-.009.098-.011.098-.013.098-.016.097-.018.096-.02.096-.023.095-.025.095-.027.093-.029.093-.032.093-.034.091-.036.091-.039.089-.041.089-.042.088-.045.087-.047.085-.049.085-.052.083-.053.082-.055.081-.058.08-.059.078-.062.077-.063.076-.066.074-.067.072-.07.071-.071.07-.072.067-.074.066-.076.063-.077.062-.078.059-.08.058-.081.055-.082.053-.083.052-.085.049-.085.047-.087.045-.088.042-.089.041-.089.039-.091.036-.091.034-.093.032-.093.029-.093.027-.095.025-.095.023-.096.02-.096.018-.097.016-.098.013-.098.011-.098.009-.099.006-.099.004-.099.001h-56l-.099-.001-.099-.004-.099-.006-.098-.009-.098-.011-.098-.013-.097-.016-.096-.018-.096-.02-.095-.023-.095-.025-.093-.027-.093-.029-.093-.032-.091-.034-.091-.036-.089-.039-.089-.041-.088-.042-.087-.045-.085-.047-.085-.049-.083-.052-.082-.053-.081-.055-.08-.058-.078-.059-.077-.062-.076-.063-.074-.066-.072-.067-.071-.07-.07-.071-.067-.072-.066-.074-.063-.076-.062-.077-.059-.078-.058-.08-.055-.081-.053-.082-.052-.083-.049-.085-.047-.085-.045-.087-.042-.088-.041-.089-.039-.089-.036-.091-.034-.091-.032-.093-.029-.093-.027-.093-.025-.095-.023-.095-.02-.096-.018-.096-.016-.097-.013-.098-.011-.098-.009-.098-.006-.099-.004-.099-.001-.099v-42l.001-.099.004-.099.006-.099.009-.098.011-.098.013-.098.016-.097.018-.096.02-.096.023-.095.025-.095.027-.093.029-.093.032-.093.034-.091.036-.091.039-.089.041-.089.042-.088.045-.087.047-.085.049-.085.052-.083.053-.082.055-.081.058-.08.059-.078.062-.077.063-.076.066-.074.067-.072.07-.071.071-.07.072-.067.074-.066.076-.063.077-.062.078-.059.08-.058.081-.055.082-.053.083-.052.085-.049.085-.047.087-.045.088-.042.089-.041.089-.039.091-.036.091-.034.093-.032.093-.029.093-.027.095-.025.095-.023.096-.02.096-.018.097-.016.098-.013.098-.011.098-.009.099-.006.099-.004.099-.001h56zm-56.087 1.999-.062.001-.049.002-.05.003-.049.004-.049.005-.048.007-.049.008-.048.009-.048.01-.047.011-.048.013-.047.014-.046.014-.046.016-.046.017-.045.018-.045.02-.045.02-.043.021-.044.023-.043.023-.042.025-.041.025-.042.027-.04.028-.04.029-.039.029-.038.031-.038.032-.037.032-.036.034-.036.035-.035.035-.034.037-.032.037-.032.038-.031.038-.029.039-.029.04-.028.041-.027.041-.025.041-.025.042-.023.043-.023.044-.021.044-.02.044-.02.045-.018.045-.017.046-.016.046-.014.046-.014.047-.013.048-.011.047-.01.048-.009.048-.008.049-.007.048-.005.049-.004.049-.003.05-.002.049-.001.062v41.976l.001.062.002.049.003.05.004.049.005.049.007.048.008.049.009.048.01.048.011.047.013.048.014.047.014.046.016.046.017.046.018.045.02.045.02.044.021.044.023.044.023.042.025.043.026.042.026.04.028.041.029.04.029.039.031.038.032.038.032.037.034.037.035.035.036.035.036.034.037.032.038.032.038.031.039.029.04.029.04.028.042.027.041.025.042.025.043.023.044.023.043.021.045.02.045.02.045.018.046.017.046.016.046.014.047.014.048.013.047.011.048.01.048.009.049.008.048.007.049.005.049.004.05.003.049.002.062.001h55.976l.062-.001.049-.002.05-.003.049-.004.049-.005.048-.007.049-.008.048-.009.048-.01.047-.011.048-.013.047-.014.046-.014.046-.016.046-.017.045-.018.045-.02.045-.02.043-.021.044-.023.043-.023.042-.025.041-.025.042-.027.04-.028.04-.029.039-.029.038-.031.038-.032.037-.032.036-.034.036-.035.035-.035.034-.037.032-.037.032-.038.031-.038.029-.039.029-.04.028-.041.026-.04.026-.042.025-.043.023-.042.023-.044.021-.044.02-.044.02-.045.018-.045.017-.046.016-.046.014-.046.014-.047.013-.048.011-.047.01-.048.009-.048.008-.049.007-.048.005-.049.004-.049.003-.05.002-.049.001-.062v-41.976l-.001-.062-.002-.049-.003-.05-.004-.049-.005-.049-.007-.048-.008-.049-.009-.048-.01-.048-.011-.047-.013-.048-.014-.047-.014-.046-.016-.046-.017-.046-.018-.045-.02-.045-.02-.044-.021-.044-.023-.044-.023-.043-.025-.042-.025-.041-.027-.041-.028-.041-.029-.04-.029-.039-.031-.038-.032-.038-.032-.037-.034-.037-.035-.035-.036-.035-.036-.034-.037-.032-.038-.032-.038-.031-.039-.029-.04-.029-.04-.028-.042-.027-.041-.025-.042-.025-.043-.023-.044-.023-.043-.021-.045-.02-.045-.02-.045-.018-.046-.017-.046-.016-.046-.014-.047-.014-.048-.013-.047-.011-.048-.01-.048-.009-.049-.008-.048-.007-.049-.005-.049-.004-.05-.003-.049-.002-.062-.001z" fill="#e6e6e6"/><path d="m0 18h64" fill="none" stroke="#e6e6e6" stroke-width="2"/><g fill="#e6e6e6"><path d="m6.052 11.001.051.002.051.003.05.004.051.006.049.007.05.008.049.01.048.01.049.012.047.013.047.014.047.015.046.016.046.018.045.018.045.02.044.02.043.022.043.023.042.023.042.025.041.025.04.027.039.027.039.029.038.029.038.03.037.031.035.032.036.033.034.033.033.034.033.036.032.035.031.037.03.038.029.038.029.039.027.039.027.04.025.041.025.042.023.042.023.043.022.043.02.044.02.045.018.045.018.046.016.046.015.047.014.047.013.047.012.049.01.048.01.049.008.05.007.049.006.051.004.05.003.051.002.051.001.052-.001.052-.002.051-.003.051-.004.05-.006.051-.007.049-.008.05-.01.049-.01.048-.012.049-.013.047-.014.047-.015.047-.016.046-.018.046-.018.045-.02.045-.02.044-.022.043-.023.043-.023.042-.025.042-.025.041-.027.04-.027.039-.029.039-.029.038-.03.038-.031.037-.032.035-.033.036-.033.034-.034.033-.036.033-.035.032-.037.031-.038.03-.038.029-.039.029-.039.027-.04.027-.041.025-.042.025-.042.023-.043.023-.043.022-.044.02-.045.02-.045.018-.046.018-.046.016-.047.015-.047.014-.047.013-.049.012-.048.01-.049.01-.05.008-.049.007-.051.006-.05.004-.051.003-.051.002-.052.001-.052-.001-.051-.002-.051-.003-.05-.004-.051-.006-.049-.007-.05-.008-.049-.01-.048-.01-.049-.012-.047-.013-.047-.014-.047-.015-.046-.016-.046-.018-.045-.018-.045-.02-.044-.02-.043-.022-.043-.023-.042-.023-.042-.025-.041-.025-.04-.027-.039-.027-.039-.029-.038-.029-.038-.03-.037-.031-.035-.032-.036-.033-.034-.033-.033-.034-.033-.036-.032-.035-.031-.037-.03-.038-.029-.038-.029-.039-.027-.039-.027-.04-.025-.041-.025-.042-.023-.042-.023-.043-.022-.043-.02-.044-.02-.045-.018-.045-.018-.046-.016-.046-.015-.047-.014-.047-.013-.047-.012-.049-.01-.048-.01-.049-.008-.05-.007-.049-.006-.051-.004-.05-.003-.051-.002-.051-.001-.052.001-.052.002-.051.003-.051.004-.05.006-.051.007-.049.008-.05.01-.049.01-.048.012-.049.013-.047.014-.047.015-.047.016-.046.018-.046.018-.045.02-.045.02-.044.022-.043.023-.043.023-.042.025-.042.025-.041.027-.04.027-.039.029-.039.029-.038.03-.038.031-.037.032-.035.033-.036.033-.034.034-.033.036-.033.035-.032.037-.031.038-.03.038-.029.039-.029.039-.027.04-.027.041-.025.042-.025.042-.023.043-.023.043-.022.044-.02.045-.02.045-.018.046-.018.046-.016.047-.015.047-.014.047-.013.049-.012.048-.01.049-.01.05-.008.049-.007.051-.006.05-.004.051-.003.051-.002.052-.001z"/><path d="m12.052 11.001.051.002.051.003.05.004.051.006.049.007.05.008.049.01.048.01.049.012.047.013.047.014.047.015.046.016.046.018.045.018.045.02.044.02.043.022.043.023.042.023.042.025.041.025.04.027.039.027.039.029.038.029.038.03.037.031.035.032.036.033.034.033.033.034.033.036.032.035.031.037.03.038.029.038.029.039.027.039.027.04.025.041.025.042.023.042.023.043.022.043.02.044.02.045.018.045.018.046.016.046.015.047.014.047.013.047.012.049.01.048.01.049.008.05.007.049.006.051.004.05.003.051.002.051.001.052-.001.052-.002.051-.003.051-.004.05-.006.051-.007.049-.008.05-.01.049-.01.048-.012.049-.013.047-.014.047-.015.047-.016.046-.018.046-.018.045-.02.045-.02.044-.022.043-.023.043-.023.042-.025.042-.025.041-.027.04-.027.039-.029.039-.029.038-.03.038-.031.037-.032.035-.033.036-.033.034-.034.033-.036.033-.035.032-.037.031-.038.03-.038.029-.039.029-.039.027-.04.027-.041.025-.042.025-.042.023-.043.023-.043.022-.044.02-.045.02-.045.018-.046.018-.046.016-.047.015-.047.014-.047.013-.049.012-.048.01-.049.01-.05.008-.049.007-.051.006-.05.004-.051.003-.051.002-.052.001-.052-.001-.051-.002-.051-.003-.05-.004-.051-.006-.049-.007-.05-.008-.049-.01-.048-.01-.049-.012-.047-.013-.047-.014-.047-.015-.046-.016-.046-.018-.045-.018-.045-.02-.044-.02-.043-.022-.043-.023-.042-.023-.042-.025-.041-.025-.04-.027-.039-.027-.039-.029-.038-.029-.038-.03-.037-.031-.035-.032-.036-.033-.034-.033-.033-.034-.033-.036-.032-.035-.031-.037-.03-.038-.029-.038-.029-.039-.027-.039-.027-.04-.025-.041-.025-.042-.023-.042-.023-.043-.022-.043-.02-.044-.02-.045-.018-.045-.018-.046-.016-.046-.015-.047-.014-.047-.013-.047-.012-.049-.01-.048-.01-.049-.008-.05-.007-.049-.006-.051-.004-.05-.003-.051-.002-.051-.001-.052.001-.052.002-.051.003-.051.004-.05.006-.051.007-.049.008-.05.01-.049.01-.048.012-.049.013-.047.014-.047.015-.047.016-.046.018-.046.018-.045.02-.045.02-.044.022-.043.023-.043.023-.042.025-.042.025-.041.027-.04.027-.039.029-.039.029-.038.03-.038.031-.037.032-.035.033-.036.033-.034.034-.033.036-.033.035-.032.037-.031.038-.03.038-.029.039-.029.039-.027.04-.027.041-.025.042-.025.042-.023.043-.023.043-.022.044-.02.045-.02.045-.018.046-.018.046-.016.047-.015.047-.014.047-.013.049-.012.048-.01.049-.01.05-.008.049-.007.051-.006.05-.004.051-.003.051-.002.052-.001z"/><path d="m18.052 11.001.051.002.051.003.05.004.051.006.049.007.05.008.049.01.048.01.049.012.047.013.047.014.047.015.046.016.046.018.045.018.045.02.044.02.043.022.043.023.042.023.042.025.041.025.04.027.039.027.039.029.038.029.038.03.037.031.035.032.036.033.034.033.033.034.033.036.032.035.031.037.03.038.029.038.029.039.027.039.027.04.025.041.025.042.023.042.023.043.022.043.02.044.02.045.018.045.018.046.016.046.015.047.014.047.013.047.012.049.01.048.01.049.008.05.007.049.006.051.004.05.003.051.002.051.001.052-.001.052-.002.051-.003.051-.004.05-.006.051-.007.049-.008.05-.01.049-.01.048-.012.049-.013.047-.014.047-.015.047-.016.046-.018.046-.018.045-.02.045-.02.044-.022.043-.023.043-.023.042-.025.042-.025.041-.027.04-.027.039-.029.039-.029.038-.03.038-.031.037-.032.035-.033.036-.033.034-.034.033-.036.033-.035.032-.037.031-.038.03-.038.029-.039.029-.039.027-.04.027-.041.025-.042.025-.042.023-.043.023-.043.022-.044.02-.045.02-.045.018-.046.018-.046.016-.047.015-.047.014-.047.013-.049.012-.048.01-.049.01-.05.008-.049.007-.051.006-.05.004-.051.003-.051.002-.052.001-.052-.001-.051-.002-.051-.003-.05-.004-.051-.006-.049-.007-.05-.008-.049-.01-.048-.01-.049-.012-.047-.013-.047-.014-.047-.015-.046-.016-.046-.018-.045-.018-.045-.02-.044-.02-.043-.022-.043-.023-.042-.023-.042-.025-.041-.025-.04-.027-.039-.027-.039-.029-.038-.029-.038-.03-.037-.031-.035-.032-.036-.033-.034-.033-.033-.034-.033-.036-.032-.035-.031-.037-.03-.038-.029-.038-.029-.039-.027-.039-.027-.04-.025-.041-.025-.042-.023-.042-.023-.043-.022-.043-.02-.044-.02-.045-.018-.045-.018-.046-.016-.046-.015-.047-.014-.047-.013-.047-.012-.049-.01-.048-.01-.049-.008-.05-.007-.049-.006-.051-.004-.05-.003-.051-.002-.051-.001-.052.001-.052.002-.051.003-.051.004-.05.006-.051.007-.049.008-.05.01-.049.01-.048.012-.049.013-.047.014-.047.015-.047.016-.046.018-.046.018-.045.02-.045.02-.044.022-.043.023-.043.023-.042.025-.042.025-.041.027-.04.027-.039.029-.039.029-.038.03-.038.031-.037.032-.035.033-.036.033-.034.034-.033.036-.033.035-.032.037-.031.038-.03.038-.029.039-.029.039-.027.04-.027.041-.025.042-.025.042-.023.043-.023.043-.022.044-.02.045-.02.045-.018.046-.018.046-.016.047-.015.047-.014.047-.013.049-.012.048-.01.049-.01.05-.008.049-.007.051-.006.05-.004.051-.003.051-.002.052-.001z"/></g></g></svg>