<?xml version="1.0" encoding="UTF-8" standalone="no"?><!DOCTYPE svg PUBLIC "-//W3C//DTD SVG 1.1//EN" "http://www.w3.org/Graphics/SVG/1.1/DTD/svg11.dtd"><svg width="64px" height="64px" version="1.1" xmlns="http://www.w3.org/2000/svg" xmlns:xlink="http://www.w3.org/1999/xlink" xml:space="preserve" xmlns:serif="http://www.serif.com/" style="fill-rule:evenodd;clip-rule:evenodd;stroke-linecap:round;stroke-linejoin:round;stroke-miterlimit:1.5;"><rect id="css_document_icon" x="0" y="0" width="64" height="64" style="fill:none;"/><clipPath id="_clip1"><rect x="0" y="0" width="64" height="64"/></clipPath><g clip-path="url(#_clip1)"><path d="M39,1L14,1C11.791,1 10,2.791 10,5C10,16.202 10,47.798 10,59C10,60.061 10.421,61.078 11.172,61.828C11.922,62.579 12.939,63 14,63C22.367,63 41.633,63 50,63C51.061,63 52.078,62.579 52.828,61.828C53.579,61.078 54,60.061 54,59C54,47.81 54,17 54,17L39,1Z" style="fill:none;stroke:#e6e6e6;stroke-width:2px;"/><path d="M39,2L39,13C39,14.061 39.421,15.078 40.172,15.828C40.922,16.579 41.939,17 43,17L54,17" style="fill:none;stroke:#e6e6e6;stroke-width:2px;"/><text x="19.834px" y="54px" style="font-family:'Inter-Medium', 'Inter', sans-serif;font-weight:500;font-size:12px;fill:#e6e6e6;">CSS</text></g></svg>