<svg clip-rule="evenodd" fill-rule="evenodd" height="64" stroke-linecap="round" stroke-linejoin="round" stroke-miterlimit="1.5" width="64" xmlns="http://www.w3.org/2000/svg" xmlns:xlink="http://www.w3.org/1999/xlink"><clipPath id="a"><path clip-rule="evenodd" d="m0 0h64v64h-64z"/></clipPath><g fill="none"><path d="m0 0h64v64h-64z"/><g clip-path="url(#a)" stroke="#e6e6e6" stroke-width="2"><path d="m39 1h-25c-2.209 0-4 1.791-4 4v54c0 1.061.421 2.078 1.172 2.828.75.751 1.767 1.172 2.828 1.172h36c1.061 0 2.078-.421 2.828-1.172.751-.75 1.172-1.767 1.172-2.828 0-11.19 0-42 0-42z"/><path d="m39 2v11c0 1.061.421 2.078 1.172 2.828.75.751 1.767 1.172 2.828 1.172h11"/></g></g></svg>